<svg width="128" height="22" viewBox="0 0 128 22" fill="none" xmlns="http://www.w3.org/2000/svg">
<path d="M14.52 0.635254V15.768L4.77 0.635254H0.869995V21.5286H4.77V6.51523L14.52 21.5286H18.42V0.635254H14.52Z" fill="white"/>
<path d="M20.1773 4.54529H24.1973V0.635254H20.1773V4.54529ZM20.2373 21.5286V6.60477H24.1373V21.5286H20.2373Z" fill="white"/>
<path d="M40.9174 14.0667C40.9174 8.90303 37.2274 6.45553 33.3274 6.42568C29.3974 6.39583 25.7674 8.90303 25.7674 14.0667C25.7674 19.2303 29.3974 21.7375 33.3274 21.7076C36.8974 21.6778 39.3574 20.0362 40.4974 17.32L37.4674 16.0664C36.5374 17.917 35.0674 18.5736 33.3274 18.6035C31.8274 18.6333 30.1174 17.917 29.7574 15.2606H40.8274C40.8874 14.8725 40.9174 14.4845 40.9174 14.0667ZM33.3274 9.49998C34.8274 9.52983 36.3574 10.3357 36.8374 12.4847H29.8174C30.3274 10.3059 31.8574 9.47013 33.3274 9.49998Z" fill="white"/>
<path d="M49.9305 9.38059V6.42568H47.4705V2.42611L43.5705 3.62001V6.42568H41.1105V9.38059H43.5705V17.1111C43.5705 20.0362 43.8106 21.5286 48.3705 21.5286H49.4206V18.1259H48.3705C47.6506 18.1259 47.4705 18.0065 47.4705 17.1111V9.38059H49.9305Z" fill="white"/>
<path d="M55.7257 18.2752L64.0057 9.85815V6.60477H51.5857V9.85815H59.6257L51.3457 18.2752V21.5286H64.0957V18.2752H55.7257Z" fill="white"/>
<path d="M65.494 17.32L69.424 16.7231C69.694 18.2155 71.464 18.7826 72.544 18.7826C73.654 18.7826 75.574 18.5438 75.574 16.7529C75.574 13.2608 65.944 17.6185 65.944 10.9327C65.944 6.63461 70.954 6.39583 72.544 6.39583C74.044 6.39583 78.394 6.63461 79.294 10.0969L75.574 10.873C75.244 9.29105 73.564 8.99257 72.664 8.99257C71.764 8.99257 69.844 9.20151 69.844 10.9327C69.844 14.395 79.474 9.97754 79.474 16.7529C79.474 21.3196 74.194 21.7076 72.544 21.7076C71.044 21.7076 66.274 21.3196 65.494 17.32Z" fill="white"/>
<path d="M84.5405 14.0667C84.5405 17.7081 86.4905 18.8124 88.5305 18.7826C90.3605 18.7527 91.6205 18.0065 92.3705 15.9172L95.5805 17.4693C94.4105 20.5137 91.5605 21.6778 88.5305 21.7076C84.6005 21.7375 80.6405 19.2303 80.6405 14.0667C80.6405 8.90303 84.6005 6.39583 88.5305 6.42568C91.5605 6.45553 94.4105 7.61959 95.5805 10.664L92.3705 12.2161C91.6205 10.1268 90.3605 9.38059 88.5305 9.35074C86.4905 9.3209 84.5405 10.4253 84.5405 14.0667Z" fill="white"/>
<path d="M106.05 6.36599C104.04 6.36599 102.21 7.41065 101.04 9.64922V0.635254H97.1402V21.5286H101.04V16.2455C101.04 9.41044 103.89 8.84334 104.94 8.84334C106.62 8.84334 106.86 10.5745 106.86 13.1115V21.5286H110.76V13.1115C110.76 9.94769 110.25 6.36599 106.05 6.36599Z" fill="white"/>
<path d="M127.226 14.0667C127.226 8.90303 123.536 6.45553 119.636 6.42568C115.706 6.39583 112.076 8.90303 112.076 14.0667C112.076 19.2303 115.706 21.7375 119.636 21.7076C123.206 21.6778 125.666 20.0362 126.806 17.32L123.776 16.0664C122.846 17.917 121.376 18.5736 119.636 18.6035C118.136 18.6333 116.426 17.917 116.066 15.2606H127.136C127.196 14.8725 127.226 14.4845 127.226 14.0667ZM119.636 9.49998C121.136 9.52983 122.666 10.3357 123.146 12.4847H116.126C116.636 10.3059 118.166 9.47013 119.636 9.49998Z" fill="white"/>
</svg>
